<?xml version="1.0" encoding="UTF-8"?>
<svg id="Camada_2" data-name="Camada 2" xmlns="http://www.w3.org/2000/svg" xmlns:xlink="http://www.w3.org/1999/xlink" viewBox="0 0 595.9 359.5">
  <defs>
    <style>
      .cls-1 {
        fill: url(#Gradiente_sem_nome_43);
      }

      .cls-2 {
        fill: url(#Gradiente_sem_nome_44);
      }
    </style>
    <linearGradient id="Gradiente_sem_nome_43" data-name="Gradiente sem nome 43" x1="1165.28" y1="1178.25" x2="619.07" y2="1207.54" gradientTransform="translate(-280.03 -707.43) scale(.74)" gradientUnits="userSpaceOnUse">
      <stop offset="0" stop-color="#33bc4e"/>
      <stop offset=".36" stop-color="#259a74"/>
      <stop offset="1" stop-color="#118582"/>
    </linearGradient>
    <linearGradient id="Gradiente_sem_nome_44" data-name="Gradiente sem nome 44" x1="385.91" y1="1185.37" x2="951.74" y2="1199.24" gradientTransform="translate(-280.03 -707.43) scale(.74)" gradientUnits="userSpaceOnUse">
      <stop offset="0" stop-color="#148584"/>
      <stop offset=".67" stop-color="#269b73"/>
      <stop offset="1" stop-color="#30bd4c"/>
    </linearGradient>
  </defs>
  <g id="Camada_1-2" data-name="Camada 1">
    <g id="Objeto_generativo_180_0_" data-name="Objeto generativo (180, 0)">
      <path class="cls-1" d="M244.39,98.39l47.92,37.95c-8.16,6.06-14.79,12.7-21.84,19.58l-21.22,20.71,60.73,64.08c15.88,16.75,31.58,32.71,48.99,47.84,9.38,8.15,20.98,13.08,32.78,16.23,11.63,3.11,22.26,1.06,32.98-3.54,12.08-5.18,23.72-10.47,33.51-19.36l34.34-31.19,22.77-20.54c25.83-23.3,32.79-57.71,15.26-87.81-4.66-8.01-10.19-14.16-17.11-20.31l-58.27-51.77c-6.42-5.71-14.44-7.88-22.46-10.36-12.64-3.57-25.2-3.3-37.99,0-12.66,3.62-23.87,9.83-34.15,18.48-16.15-14.24-31.77-27.37-48.73-40.12,22.06-19.95,49.16-32.62,78.58-36.42,37.97-4.36,80.8,4.91,109.02,30.82l32.58,29.92c21.47,19.72,46.04,39.56,56.68,67.59,6.01,15.82,7.75,32.48,6.95,49.55-.66,14.26-2.23,27.96-7.2,41.06-14.22,37.48-40.84,57.66-70.87,83.27-34.7,29.59-61.19,53-109.39,54.51-33.48,1.05-64.92-8.88-90.59-30.39-19.88-16.66-38.17-34.91-57.14-52.75-6.38-6-12.07-11.5-17.86-18.04l-38.42-43.42-36.58-40.92,23.34-23.57,14.09-13.65c12.98-12.76,25.61-25.26,39.3-37.43Z"/>
      <path class="cls-2" d="M57.81,189.06c3.77,19.39,15.06,34.98,30,47.46l37.55,33.93c14.27,12.9,34.06,31.61,52.77,34.34,24.36,3.54,45.84-3.27,65.35-16.74l19.23,17.12,22.67,20.9c-34.82,29.2-81.5,40.09-125.8,29.41-13.69-3.3-25.52-9.02-37.3-16.4-12.56-7.86-22.96-17.34-33.87-27.14l-35.35-31.74c-23.21-20.84-40.28-40.29-48.67-70.56-10.86-39.21-1.28-81.69,24.56-112.69,2.46-2.95,4.87-5.65,7.66-8.17l47.66-43.06c9.32-8.42,17.96-16.22,28.37-23.12C140.31,4.27,173.24-3.34,206.15,1.35c21.81,3.11,41.57,11.26,59.84,23.42l21.15,15.46c32.9,21.68,62.81,46.6,90.27,74.93l29.73,29.13,35.57,35.31-23.55,23.8-55.5,50.76-11.09,10.22-16.36-15.66-23.93-23.21,51.3-46.69-34.88-32.85c-26.46-24.92-53.07-49.01-80.62-72.55-13.23-8.5-27.1-12.89-42.41-16.15-24.97-5.31-49.66.07-69.27,16.9l-26.62,24.56-29.01,26.22c-17.86,16.14-27.61,40.29-22.98,64.12Z"/>
    </g>
  </g>
</svg>