<?xml version="1.0" encoding="UTF-8"?>
<svg id="Camada_1" xmlns="http://www.w3.org/2000/svg" version="1.1" xmlns:xlink="http://www.w3.org/1999/xlink" viewBox="0 0 2816 1536">
  <!-- Generator: Adobe Illustrator 30.3.0, SVG Export Plug-In . SVG Version: 2.1.3 Build 182)  -->
  <defs>
    <style>
      .st0 {
        fill: url(#Gradiente_sem_nome_152);
      }

      .st1 {
        fill: url(#Gradiente_sem_nome_1521);
      }

      .st2 {
        fill: url(#Gradiente_sem_nome_1522);
      }

      .st3 {
        fill: #383838;
      }

      .st4 {
        display: none;
      }

      .st5 {
        fill: url(#Gradiente_sem_nome_43);
      }

      .st6 {
        fill: url(#Gradiente_sem_nome_1523);
      }

      .st7 {
        fill: url(#Gradiente_sem_nome_44);
      }
    </style>
    <linearGradient id="Gradiente_sem_nome_152" data-name="Gradiente sem nome 152" x1="756.84" y1="808.4" x2="1199.54" y2="808.4" gradientUnits="userSpaceOnUse">
      <stop offset="0" stop-color="#36c04c"/>
      <stop offset=".34" stop-color="#289b76"/>
      <stop offset="1" stop-color="#158484"/>
    </linearGradient>
    <linearGradient id="Gradiente_sem_nome_1521" data-name="Gradiente sem nome 152" x1="1002.43" y1="775.49" x2="1004.91" y2="775.49" xlink:href="#Gradiente_sem_nome_152"/>
    <linearGradient id="Gradiente_sem_nome_1522" data-name="Gradiente sem nome 152" x1="603.81" y1="808.39" x2="1031.62" y2="808.39" xlink:href="#Gradiente_sem_nome_152"/>
    <linearGradient id="Gradiente_sem_nome_1523" data-name="Gradiente sem nome 152" x1="1002.08" y1="773.95" x2="1002.43" y2="773.95" xlink:href="#Gradiente_sem_nome_152"/>
    <linearGradient id="Gradiente_sem_nome_43" data-name="Gradiente sem nome 43" x1="1769.01" y1="1806.89" x2="1222.79" y2="1836.19" gradientTransform="translate(-125.87 -546.9) scale(.74)" gradientUnits="userSpaceOnUse">
      <stop offset="0" stop-color="#33bc4e"/>
      <stop offset=".36" stop-color="#259a74"/>
      <stop offset="1" stop-color="#118582"/>
    </linearGradient>
    <linearGradient id="Gradiente_sem_nome_44" data-name="Gradiente sem nome 44" x1="989.63" y1="1814.02" x2="1555.46" y2="1827.89" gradientTransform="translate(-125.87 -546.9) scale(.74)" gradientUnits="userSpaceOnUse">
      <stop offset="0" stop-color="#148584"/>
      <stop offset=".67" stop-color="#269b73"/>
      <stop offset="1" stop-color="#30bd4c"/>
    </linearGradient>
  </defs>
  <g class="st4">
    <g>
      <path class="st0" d="M838.3,727.98c14.35,12.23,28.71,24.47,43.06,36.7-15.13,14.11-30.27,28.23-45.4,42.34l90.97,84.24c30.38,28.13,53.05,48.02,95.59,42.28,23.08-6.33,39.24-22.79,55.94-37.99l33.66-30.61c34.68-26.72,42.14-73.54,12.04-106.5l-24.6-22.31-29.56-27.61c-14.26-13.32-30.66-22.5-49.11-24.44-8.33-.88-15.17.12-21.25.96-19.02,2.64-35.38,9.01-48.79,16.37-11.67-10.73-23.34-21.47-35.01-32.2,44.86-45.71,116.69-53.66,169.87-18.66,21.73,14.3,38.1,32.56,57.26,49.44,12,10.57,24.35,20.3,33.57,33.4,32.29,45.87,30.58,107.6-5.38,150.3-13.67,16.23-29.16,28.65-44.47,42.57l-23.4,21.27c-24.32,22.1-51.07,36.94-84.61,39.94-39.22,3.51-78.14-8.94-107.52-35.85l-111.33-101.98c-14.99-13.73-29.49-26.52-43.01-41.55,27.15-26.69,54.31-53.39,81.46-80.08Z"/>
      <path class="st1" d="M1004.91,776.74s-.06.06-.1.1c-.79-.9-1.58-1.79-2.38-2.69.84.86,1.65,1.73,2.48,2.59Z"/>
      <path class="st2" d="M1031.62,801.54c-27.07,30.48-54.15,60.97-81.22,91.45-14.9-13.26-29.79-26.53-44.69-39.79,14.99-15.93,29.97-31.85,44.96-47.78-16.06-16.39-65.35-65.86-113.78-100.48-11.03-7.88-26.7-18.34-48.29-19.12-18.54-.67-33.51,6.08-42.29,11.08-20.59,18.36-41.18,36.74-61.77,55.1-32.13,28.66-35.34,74.6-.69,106.17l57.08,51.99c11.52,10.51,24.7,15.86,38.24,21.61,20.57,8.72,42.81-1.44,63.98-14.77l41.25,37.7c-29.46,24.43-63.73,35.42-101.5,31.82-41.2-3.94-63.61-22.37-93.76-48-36.89-31.36-76.67-60.48-83.43-111.74-9.85-74.62,19.99-97.57,67.53-140.53,18.48-16.69,34.21-34.26,57.54-44.67,31.4-14,72.14-15.88,104.96-4.88,28.14,9.43,46.24,23.98,67.68,42.89,33.77,29.78,77.78,70.38,128.22,121.95Z"/>
      <path class="st6" d="M1002.43,774.15c-.1-.12-.21-.25-.35-.36l.02-.02c.12.13.23.25.33.38Z"/>
    </g>
  </g>
  <g id="Objeto_generativo__x28_180_x2C__0_x29_">
    <path class="st5" d="M848.12,727.04l47.92,37.95c-8.16,6.06-14.79,12.7-21.84,19.58l-21.22,20.71,60.73,64.08c15.88,16.75,31.58,32.71,48.99,47.84,9.38,8.15,20.98,13.08,32.78,16.23,11.63,3.11,22.26,1.06,32.98-3.54,12.08-5.18,23.72-10.47,33.51-19.36l34.34-31.19,22.77-20.54c25.83-23.3,32.79-57.71,15.26-87.81-4.66-8.01-10.19-14.16-17.11-20.31l-58.27-51.77c-6.42-5.71-14.44-7.88-22.46-10.36-12.64-3.57-25.2-3.3-37.99,0-12.66,3.62-23.87,9.83-34.15,18.48-16.15-14.24-31.77-27.37-48.73-40.12,22.06-19.95,49.16-32.62,78.58-36.42,37.97-4.36,80.8,4.91,109.02,30.82l32.58,29.92c21.47,19.72,46.04,39.56,56.68,67.59,6.01,15.82,7.75,32.48,6.95,49.55-.66,14.26-2.23,27.96-7.2,41.06-14.22,37.48-40.84,57.66-70.87,83.27-34.7,29.59-61.19,53-109.39,54.51-33.48,1.05-64.92-8.88-90.59-30.39-19.88-16.66-38.17-34.91-57.14-52.75-6.38-6-12.07-11.5-17.86-18.04l-38.42-43.42-36.58-40.92,23.34-23.57,14.09-13.65c12.98-12.76,25.61-25.26,39.3-37.43Z"/>
    <path class="st7" d="M661.54,817.71c3.77,19.39,15.06,34.98,30,47.46l37.55,33.93c14.27,12.9,34.06,31.61,52.77,34.34,24.36,3.54,45.84-3.27,65.35-16.74l19.23,17.12,22.67,20.9c-34.82,29.2-81.5,40.09-125.8,29.41-13.69-3.3-25.52-9.02-37.3-16.4-12.56-7.86-22.96-17.34-33.87-27.14l-35.35-31.74c-23.21-20.84-40.28-40.29-48.67-70.56-10.86-39.21-1.28-81.69,24.56-112.69,2.46-2.95,4.87-5.65,7.66-8.17l47.66-43.06c9.32-8.42,17.96-16.22,28.37-23.12,27.66-18.34,60.58-25.95,93.49-21.26,21.81,3.11,41.57,11.26,59.84,23.42l21.15,15.46c32.9,21.68,62.81,46.6,90.27,74.93l29.73,29.13,35.57,35.31-23.55,23.8-55.5,50.76-11.09,10.22-16.36-15.66-23.93-23.21,51.3-46.69-34.88-32.85c-26.46-24.92-53.07-49.01-80.62-72.55-13.23-8.5-27.1-12.89-42.41-16.15-24.97-5.31-49.66.07-69.27,16.9l-26.62,24.56-29.01,26.22c-17.86,16.14-27.61,40.29-22.98,64.12Z"/>
  </g>
  <g>
    <path class="st3" d="M1351.12,729.41v39.61h100.16v76.03h-100.16v45.53h113.82v80.58h-214.89v-322.34h214.89v80.58h-113.82Z"/>
    <path class="st3" d="M1604.26,894.67h97.43v76.49h-198.5v-322.34h101.07v245.85Z"/>
    <path class="st3" d="M1784.32,952.95c-25.35-14.26-45.46-33.99-60.32-59.19-14.87-25.19-22.31-53.57-22.31-85.14s7.43-59.94,22.31-85.14c14.87-25.19,34.98-44.85,60.32-58.96,25.34-14.11,53.19-21.17,83.54-21.17s58.12,7.06,83.32,21.17c25.19,14.11,45.14,33.77,59.87,58.96,14.72,25.2,22.08,53.57,22.08,85.14s-7.36,59.95-22.08,85.14c-14.73,25.2-34.76,44.92-60.1,59.19-25.35,14.27-53.04,21.4-83.09,21.4s-58.2-7.13-83.54-21.4ZM1914.3,860.75c10.93-12.9,16.39-30.28,16.39-52.13s-5.46-39.68-16.39-52.59c-10.93-12.9-26.41-19.35-46.44-19.35s-35.97,6.45-46.89,19.35c-10.93,12.9-16.39,30.43-16.39,52.59s5.46,39.23,16.39,52.13c10.93,12.9,26.56,19.35,46.89,19.35s35.51-6.44,46.44-19.35Z"/>
  </g>
</svg>